<svg width="1920" height="1254" viewBox="0 0 1920 1254" fill="none" xmlns="http://www.w3.org/2000/svg">
<g opacity="0.1" clip-path="url(#clip0_11300_4280)">
<mask id="mask0_11300_4280" style="mask-type:alpha" maskUnits="userSpaceOnUse" x="0" y="480" width="1920" height="1765">
<rect width="1920" height="1734" transform="matrix(-1 0 0 1 1920 480)" fill="url(#paint0_linear_11300_4280)"/>
</mask>
<g mask="url(#mask0_11300_4280)">
<g clip-path="url(#clip1_11300_4280)">
<g clip-path="url(#clip2_11300_4280)">
<line y1="-0.5" x2="1772" y2="-0.5" transform="matrix(0 1 1 0 1824 480)" stroke="white"/>
<line y1="-0.5" x2="1772" y2="-0.5" transform="matrix(0 1 1 0 1728 480)" stroke="white"/>
<line y1="-0.5" x2="1772" y2="-0.5" transform="matrix(0 1 1 0 1632 480)" stroke="white"/>
<line y1="-0.5" x2="1772" y2="-0.5" transform="matrix(0 1 1 0 1536 480)" stroke="white"/>
<line y1="-0.5" x2="1772" y2="-0.5" transform="matrix(0 1 1 0 1440 480)" stroke="white"/>
<line y1="-0.5" x2="1772" y2="-0.5" transform="matrix(0 1 1 0 1344 480)" stroke="white"/>
<line y1="-0.5" x2="1772" y2="-0.5" transform="matrix(0 1 1 0 1248 480)" stroke="white"/>
<line y1="-0.5" x2="1772" y2="-0.5" transform="matrix(0 1 1 0 1152 480)" stroke="white"/>
<line y1="-0.5" x2="1772" y2="-0.5" transform="matrix(0 1 1 0 1056 480)" stroke="white"/>
<line y1="-0.5" x2="1772" y2="-0.5" transform="matrix(0 1 1 0 960 480)" stroke="white"/>
<line y1="-0.5" x2="1772" y2="-0.5" transform="matrix(0 1 1 0 864 480)" stroke="white"/>
<line y1="-0.5" x2="1772" y2="-0.5" transform="matrix(0 1 1 0 768 480)" stroke="white"/>
<line y1="-0.5" x2="1772" y2="-0.5" transform="matrix(0 1 1 0 672 480)" stroke="white"/>
<line y1="-0.5" x2="1772" y2="-0.5" transform="matrix(0 1 1 0 576 480)" stroke="white"/>
<line y1="-0.5" x2="1772" y2="-0.5" transform="matrix(0 1 1 0 480 480)" stroke="white"/>
<line y1="-0.5" x2="1772" y2="-0.5" transform="matrix(0 1 1 0 384 480)" stroke="white"/>
<line y1="-0.5" x2="1772" y2="-0.5" transform="matrix(0 1 1 0 288 480)" stroke="white"/>
<line y1="-0.5" x2="1772" y2="-0.5" transform="matrix(0 1 1 0 192 480)" stroke="white"/>
<line y1="-0.5" x2="1772" y2="-0.5" transform="matrix(0 1 1 0 96 480)" stroke="white"/>
</g>
<g clip-path="url(#clip3_11300_4280)">
<line y1="-0.5" x2="1920" y2="-0.5" transform="matrix(-1 0 0 1 1920 576)" stroke="white"/>
<line y1="-0.5" x2="1920" y2="-0.5" transform="matrix(-1 0 0 1 1920 672)" stroke="white"/>
<line y1="-0.5" x2="1920" y2="-0.5" transform="matrix(-1 0 0 1 1920 768)" stroke="white"/>
<line y1="-0.5" x2="1920" y2="-0.5" transform="matrix(-1 0 0 1 1920 864)" stroke="white"/>
<line y1="-0.5" x2="1920" y2="-0.5" transform="matrix(-1 0 0 1 1920 960)" stroke="white"/>
<line y1="-0.5" x2="1920" y2="-0.5" transform="matrix(-1 0 0 1 1920 1056)" stroke="white"/>
<line y1="-0.5" x2="1920" y2="-0.5" transform="matrix(-1 0 0 1 1920 1152)" stroke="white"/>
<line y1="-0.5" x2="1920" y2="-0.5" transform="matrix(-1 0 0 1 1920 1248)" stroke="white"/>
</g>
</g>
</g>
</g>
<g opacity="0.1" clip-path="url(#clip4_11300_4280)">
<mask id="mask1_11300_4280" style="mask-type:alpha" maskUnits="userSpaceOnUse" x="0" y="0" width="1920" height="1765">
<rect width="1920" height="1734" transform="matrix(-1 0 0 1 1920 0)" fill="url(#paint1_linear_11300_4280)"/>
</mask>
<g mask="url(#mask1_11300_4280)">
<g clip-path="url(#clip5_11300_4280)">
<g clip-path="url(#clip6_11300_4280)">
<line y1="-0.5" x2="1772" y2="-0.5" transform="matrix(0 1 1 0 1824 0)" stroke="white"/>
<line y1="-0.5" x2="1772" y2="-0.5" transform="matrix(0 1 1 0 1728 0)" stroke="white"/>
<line y1="-0.5" x2="1772" y2="-0.5" transform="matrix(0 1 1 0 1632 0)" stroke="white"/>
<line y1="-0.5" x2="1772" y2="-0.5" transform="matrix(0 1 1 0 1536 0)" stroke="white"/>
<line y1="-0.5" x2="1772" y2="-0.5" transform="matrix(0 1 1 0 1440 0)" stroke="white"/>
<line y1="-0.5" x2="1772" y2="-0.5" transform="matrix(0 1 1 0 1344 0)" stroke="white"/>
<line y1="-0.5" x2="1772" y2="-0.5" transform="matrix(0 1 1 0 1248 0)" stroke="white"/>
<line y1="-0.5" x2="1772" y2="-0.5" transform="matrix(0 1 1 0 1152 0)" stroke="white"/>
<line y1="-0.5" x2="1772" y2="-0.5" transform="matrix(0 1 1 0 1056 0)" stroke="white"/>
<line y1="-0.5" x2="1772" y2="-0.5" transform="matrix(0 1 1 0 960 0)" stroke="white"/>
<line y1="-0.5" x2="1772" y2="-0.5" transform="matrix(0 1 1 0 864 0)" stroke="white"/>
<line y1="-0.5" x2="1772" y2="-0.5" transform="matrix(0 1 1 0 768 0)" stroke="white"/>
<line y1="-0.5" x2="1772" y2="-0.5" transform="matrix(0 1 1 0 672 0)" stroke="white"/>
<line y1="-0.5" x2="1772" y2="-0.5" transform="matrix(0 1 1 0 576 0)" stroke="white"/>
<line y1="-0.5" x2="1772" y2="-0.5" transform="matrix(0 1 1 0 480 0)" stroke="white"/>
<line y1="-0.5" x2="1772" y2="-0.5" transform="matrix(0 1 1 0 384 0)" stroke="white"/>
<line y1="-0.5" x2="1772" y2="-0.5" transform="matrix(0 1 1 0 288 0)" stroke="white"/>
<line y1="-0.5" x2="1772" y2="-0.5" transform="matrix(0 1 1 0 192 0)" stroke="white"/>
<line y1="-0.5" x2="1772" y2="-0.5" transform="matrix(0 1 1 0 96 0)" stroke="white"/>
</g>
<g clip-path="url(#clip7_11300_4280)">
<line y1="-0.5" x2="1920" y2="-0.5" transform="matrix(-1 0 0 1 1920 96)" stroke="white"/>
<line y1="-0.5" x2="1920" y2="-0.5" transform="matrix(-1 0 0 1 1920 192)" stroke="white"/>
<line y1="-0.5" x2="1920" y2="-0.5" transform="matrix(-1 0 0 1 1920 288)" stroke="white"/>
<line y1="-0.5" x2="1920" y2="-0.5" transform="matrix(-1 0 0 1 1920 384)" stroke="white"/>
<line y1="-0.5" x2="1920" y2="-0.5" transform="matrix(-1 0 0 1 1920 480)" stroke="white"/>
<line y1="-0.5" x2="1920" y2="-0.5" transform="matrix(-1 0 0 1 1920 576)" stroke="white"/>
<line y1="-0.5" x2="1920" y2="-0.5" transform="matrix(-1 0 0 1 1920 672)" stroke="white"/>
<line y1="-0.5" x2="1920" y2="-0.5" transform="matrix(-1 0 0 1 1920 768)" stroke="white"/>
</g>
</g>
</g>
</g>
<defs>
<linearGradient id="paint0_linear_11300_4280" x1="960" y1="924.83" x2="960" y2="-14.9328" gradientUnits="userSpaceOnUse">
<stop offset="0.424649" stop-color="#08010C" stop-opacity="0"/>
<stop offset="0.853507" stop-color="#08010C"/>
</linearGradient>
<linearGradient id="paint1_linear_11300_4280" x1="960" y1="1246.02" x2="960" y2="-14.9328" gradientUnits="userSpaceOnUse">
<stop offset="0.393417" stop-color="#08010C" stop-opacity="0"/>
<stop offset="0.631661" stop-color="#08010C"/>
<stop offset="0.920063" stop-color="#08010C" stop-opacity="0"/>
</linearGradient>
<clipPath id="clip0_11300_4280">
<rect width="1920" height="774" fill="white" transform="matrix(-1 0 0 1 1920 480)"/>
</clipPath>
<clipPath id="clip1_11300_4280">
<rect width="1920" height="1762" fill="white" transform="matrix(-1 0 0 1 1920 480)"/>
</clipPath>
<clipPath id="clip2_11300_4280">
<rect width="1920" height="1772" fill="white" transform="matrix(-1 0 0 1 1920 480)"/>
</clipPath>
<clipPath id="clip3_11300_4280">
<rect width="1920" height="1824" fill="white" transform="matrix(-1 0 0 1 1920 480)"/>
</clipPath>
<clipPath id="clip4_11300_4280">
<rect width="1920" height="774" fill="white" transform="matrix(-1 0 0 1 1920 0)"/>
</clipPath>
<clipPath id="clip5_11300_4280">
<rect width="1920" height="1762" fill="white" transform="matrix(-1 0 0 1 1920 0)"/>
</clipPath>
<clipPath id="clip6_11300_4280">
<rect width="1920" height="1772" fill="white" transform="matrix(-1 0 0 1 1920 0)"/>
</clipPath>
<clipPath id="clip7_11300_4280">
<rect width="1920" height="1824" fill="white" transform="matrix(-1 0 0 1 1920 0)"/>
</clipPath>
</defs>
</svg>
