<svg width="763" height="425" viewBox="0 0 763 425" fill="none" xmlns="http://www.w3.org/2000/svg">
<g opacity="0.05" clip-path="url(#clip0_11376_2729)">
<mask id="mask0_11376_2729" style="mask-type:alpha" maskUnits="userSpaceOnUse" x="90" y="353" width="1921" height="1766">
<rect width="1920" height="1734" transform="matrix(-1 0 0 1 2010.6 353.109)" fill="url(#paint0_linear_11376_2729)"/>
</mask>
<g mask="url(#mask0_11376_2729)">
<g clip-path="url(#clip1_11376_2729)">
<g clip-path="url(#clip2_11376_2729)">
<line y1="-0.5" x2="1772" y2="-0.5" transform="matrix(0 1 1 0 666.604 353.109)" stroke="white"/>
<line y1="-0.5" x2="1772" y2="-0.5" transform="matrix(0 1 1 0 570.604 353.109)" stroke="white"/>
<line y1="-0.5" x2="1772" y2="-0.5" transform="matrix(0 1 1 0 474.604 353.109)" stroke="white"/>
<line y1="-0.5" x2="1772" y2="-0.5" transform="matrix(0 1 1 0 378.604 353.109)" stroke="white"/>
<line y1="-0.5" x2="1772" y2="-0.5" transform="matrix(0 1 1 0 282.604 353.109)" stroke="white"/>
<line y1="-0.5" x2="1772" y2="-0.5" transform="matrix(0 1 1 0 186.604 353.109)" stroke="white"/>
</g>
</g>
</g>
</g>
<g opacity="0.05" clip-path="url(#clip3_11376_2729)">
<mask id="mask1_11376_2729" style="mask-type:alpha" maskUnits="userSpaceOnUse" x="90" y="-127" width="1921" height="1766">
<rect width="1920" height="1734" transform="matrix(-1 0 0 1 2010.6 -126.891)" fill="url(#paint1_linear_11376_2729)"/>
</mask>
<g mask="url(#mask1_11376_2729)">
<g clip-path="url(#clip4_11376_2729)">
<g clip-path="url(#clip5_11376_2729)">
<line y1="-0.5" x2="1772" y2="-0.5" transform="matrix(0 1 1 0 762.604 -126.891)" stroke="white"/>
<line y1="-0.5" x2="1772" y2="-0.5" transform="matrix(0 1 1 0 666.604 -126.891)" stroke="white"/>
<line y1="-0.5" x2="1772" y2="-0.5" transform="matrix(0 1 1 0 570.604 -126.891)" stroke="white"/>
<line y1="-0.5" x2="1772" y2="-0.5" transform="matrix(0 1 1 0 474.604 -126.891)" stroke="white"/>
<line y1="-0.5" x2="1772" y2="-0.5" transform="matrix(0 1 1 0 378.604 -126.891)" stroke="white"/>
<line y1="-0.5" x2="1772" y2="-0.5" transform="matrix(0 1 1 0 282.604 -126.891)" stroke="white"/>
<line y1="-0.5" x2="1772" y2="-0.5" transform="matrix(0 1 1 0 186.604 -126.891)" stroke="white"/>
</g>
<g clip-path="url(#clip6_11376_2729)">
<line y1="-0.5" x2="1920" y2="-0.5" transform="matrix(-1 0 0 1 2010.6 65.1094)" stroke="white"/>
<line y1="-0.5" x2="1920" y2="-0.5" transform="matrix(-1 0 0 1 2010.6 161.109)" stroke="white"/>
<line y1="-0.5" x2="1920" y2="-0.5" transform="matrix(-1 0 0 1 2010.6 257.109)" stroke="white"/>
<line y1="-0.5" x2="1920" y2="-0.5" transform="matrix(-1 0 0 1 2010.6 353.109)" stroke="white"/>
</g>
</g>
</g>
</g>
<defs>
<linearGradient id="paint0_linear_11376_2729" x1="960" y1="686.639" x2="960" y2="-14.9328" gradientUnits="userSpaceOnUse">
<stop offset="0.514306" stop-color="#08010C" stop-opacity="0"/>
<stop offset="0.853507" stop-color="#08010C"/>
</linearGradient>
<linearGradient id="paint1_linear_11376_2729" x1="960" y1="1246.02" x2="1997.39" y2="208.633" gradientUnits="userSpaceOnUse">
<stop offset="0.393417" stop-color="#08010C" stop-opacity="0"/>
<stop offset="0.591321" stop-color="#08010C"/>
<stop offset="0.855381" stop-color="#08010C" stop-opacity="0"/>
</linearGradient>
<clipPath id="clip0_11376_2729">
<rect width="760" height="71" fill="white" transform="matrix(-1 0 0 1 760.129 353.355)"/>
</clipPath>
<clipPath id="clip1_11376_2729">
<rect width="1920" height="1762" fill="white" transform="matrix(-1 0 0 1 2010.6 353.109)"/>
</clipPath>
<clipPath id="clip2_11376_2729">
<rect width="1920" height="1772" fill="white" transform="matrix(-1 0 0 1 2010.6 353.109)"/>
</clipPath>
<clipPath id="clip3_11376_2729">
<rect width="656" height="424" fill="white" transform="matrix(-1 0 0 1 762.129 0.355469)"/>
</clipPath>
<clipPath id="clip4_11376_2729">
<rect width="1920" height="1762" fill="white" transform="matrix(-1 0 0 1 2010.6 -126.891)"/>
</clipPath>
<clipPath id="clip5_11376_2729">
<rect width="1920" height="1772" fill="white" transform="matrix(-1 0 0 1 2010.6 -126.891)"/>
</clipPath>
<clipPath id="clip6_11376_2729">
<rect width="1920" height="1824" fill="white" transform="matrix(-1 0 0 1 2010.6 -126.891)"/>
</clipPath>
</defs>
</svg>
