<svg width="158" height="39" viewBox="0 0 158 39" fill="none" xmlns="http://www.w3.org/2000/svg">
<path d="M56.0265 30.582L63.7065 6.96603H68.6985L76.3785 30.582H72.2505L70.4265 24.982H61.8825L60.0905 30.582H56.0265ZM62.8105 21.43H69.4665L66.1385 10.358L62.8105 21.43ZM79.0878 38.166V13.43H82.3838L83.0558 15.126C83.4611 14.806 83.9304 14.4967 84.4638 14.198C84.9971 13.8994 85.5731 13.6647 86.1918 13.494C86.8104 13.302 87.4504 13.206 88.1118 13.206C89.1998 13.206 90.1278 13.4194 90.8958 13.846C91.6851 14.2727 92.3251 14.8807 92.8158 15.67C93.3064 16.438 93.6584 17.366 93.8718 18.454C94.1064 19.5207 94.2238 20.7047 94.2238 22.006C94.2238 23.8834 94.0211 25.4834 93.6158 26.806C93.2318 28.1074 92.5918 29.0994 91.6958 29.782C90.8211 30.4647 89.6264 30.806 88.1118 30.806C87.2584 30.806 86.3838 30.6887 85.4878 30.454C84.6131 30.2194 83.8024 29.91 83.0558 29.526V38.166H79.0878ZM86.8638 27.542C87.4824 27.542 88.0478 27.382 88.5598 27.062C89.0718 26.7207 89.4771 26.1554 89.7758 25.366C90.0958 24.5767 90.2558 23.4567 90.2558 22.006C90.2558 20.6194 90.1064 19.51 89.8078 18.678C89.5091 17.846 89.1038 17.2594 88.5918 16.918C88.1011 16.5767 87.5358 16.406 86.8958 16.406C86.1064 16.406 85.3918 16.534 84.7518 16.79C84.1118 17.0247 83.5464 17.27 83.0558 17.526V26.486C83.6104 26.806 84.2184 27.062 84.8798 27.254C85.5411 27.446 86.2024 27.542 86.8638 27.542ZM97.744 38.166V13.43H101.04L101.712 15.126C102.117 14.806 102.587 14.4967 103.12 14.198C103.653 13.8994 104.229 13.6647 104.848 13.494C105.467 13.302 106.107 13.206 106.768 13.206C107.856 13.206 108.784 13.4194 109.552 13.846C110.341 14.2727 110.981 14.8807 111.472 15.67C111.963 16.438 112.315 17.366 112.528 18.454C112.763 19.5207 112.88 20.7047 112.88 22.006C112.88 23.8834 112.677 25.4834 112.272 26.806C111.888 28.1074 111.248 29.0994 110.352 29.782C109.477 30.4647 108.283 30.806 106.768 30.806C105.915 30.806 105.04 30.6887 104.144 30.454C103.269 30.2194 102.459 29.91 101.712 29.526V38.166H97.744ZM105.52 27.542C106.139 27.542 106.704 27.382 107.216 27.062C107.728 26.7207 108.133 26.1554 108.432 25.366C108.752 24.5767 108.912 23.4567 108.912 22.006C108.912 20.6194 108.763 19.51 108.464 18.678C108.165 17.846 107.76 17.2594 107.248 16.918C106.757 16.5767 106.192 16.406 105.552 16.406C104.763 16.406 104.048 16.534 103.408 16.79C102.768 17.0247 102.203 17.27 101.712 17.526V26.486C102.267 26.806 102.875 27.062 103.536 27.254C104.197 27.446 104.859 27.542 105.52 27.542ZM116.912 10.71C116.507 10.71 116.304 10.518 116.304 10.134V7.22203C116.304 6.79536 116.507 6.58203 116.912 6.58203H119.92C120.112 6.58203 120.251 6.64603 120.336 6.77403C120.443 6.90203 120.496 7.05136 120.496 7.22203V10.134C120.496 10.518 120.304 10.71 119.92 10.71H116.912ZM116.4 30.582V13.43H120.368V30.582H116.4ZM134.896 30.582L122.832 13.43H126.864L138.928 30.582H134.896ZM122.832 30.582L129.424 20.79L130.864 24.502L126.864 30.582H122.832ZM132.336 23.286L130.672 19.99L134.896 13.462L138.928 13.43L132.336 23.286ZM146.489 38.166L148.473 30.582C147.641 30.582 146.884 30.422 146.201 30.102C145.54 29.782 144.974 29.302 144.505 28.662C144.036 28.022 143.652 27.2007 143.353 26.198L139.833 13.43H143.929L147.033 25.398C147.182 25.8887 147.364 26.262 147.577 26.518C147.79 26.774 148.004 26.966 148.217 27.094C148.43 27.2007 148.622 27.2647 148.793 27.286C148.985 27.3074 149.113 27.318 149.177 27.318L152.729 13.43H156.761L151.257 34.998L149.721 38.166H146.489Z" fill="#FCFCFC" fill-opacity="0.5"/>
<path d="M23.1249 15.1342C23.7881 14.4072 24.1983 13.4041 24.1983 12.2961C24.1983 10.0767 22.5528 8.27734 20.523 8.27734C19.2399 8.27734 18.1117 8.99751 17.4543 10.0873C17.2797 10.2787 2.64907 29.9966 2.51245 30.223C1.84923 30.95 1.43896 31.9531 1.43896 33.0611C1.43896 35.2806 3.08447 37.0799 5.11425 37.0799C6.39743 37.0799 7.52564 36.3597 8.183 35.27C8.35765 35.0786 22.9883 15.3608 23.1249 15.1342Z" fill="#FCFCFC" fill-opacity="0.5"/>
<path d="M31.5881 24.4929C32.253 23.7657 32.6643 22.7612 32.6643 21.6516C32.6643 19.4321 31.0188 17.6328 28.989 17.6328C27.7052 17.6328 26.5766 18.3537 25.9194 19.4443C25.7433 19.6369 18.0589 29.9942 17.9214 30.2225C17.2565 30.9497 16.8452 31.9543 16.8452 33.0638C16.8452 35.2833 18.4906 37.0826 20.5205 37.0826C21.8043 37.0826 22.9328 36.3618 23.5901 35.2712C23.7662 35.0785 31.4506 24.7212 31.5881 24.4929Z" fill="#FCFCFC" fill-opacity="0.5"/>
<path d="M39.5036 13.2181C39.9668 11.0572 38.7404 8.89493 36.7645 8.3885C34.7885 7.88207 32.8112 9.22329 32.348 11.3842C31.8848 13.5451 33.1111 15.7074 35.0871 16.2138C37.063 16.7203 39.0404 15.3791 39.5036 13.2181Z" fill="#FCFCFC" fill-opacity="0.5"/>
<path d="M6.47368 16.0376C8.35997 15.2185 9.28176 12.8822 8.53257 10.8195C7.78339 8.75667 5.64691 7.74849 3.76063 8.56762C1.87435 9.38675 0.952553 11.723 1.70174 13.7858C2.45093 15.8486 4.5874 16.8568 6.47368 16.0376Z" fill="#FCFCFC" fill-opacity="0.5"/>
</svg>
