<svg width="148" height="41" viewBox="0 0 148 41" fill="none" xmlns="http://www.w3.org/2000/svg">
<path d="M57.4438 30.582V6.96603H66.4678C68.6865 6.96603 70.3292 7.4887 71.3958 8.53403C72.4625 9.57936 72.9958 11.1047 72.9958 13.11C72.9958 14.0487 72.8465 14.8807 72.5478 15.606C72.2705 16.31 71.8865 16.8967 71.3958 17.366C70.9052 17.814 70.3292 18.1234 69.6678 18.294C70.1585 18.422 70.6385 18.6247 71.1078 18.902C71.5985 19.158 72.0465 19.5207 72.4518 19.99C72.8572 20.4594 73.1772 21.0354 73.4118 21.718C73.6465 22.3794 73.7638 23.158 73.7638 24.054C73.7638 25.6754 73.4865 26.966 72.9318 27.926C72.3985 28.8647 71.6092 29.5474 70.5638 29.974C69.5398 30.3794 68.3025 30.582 66.8518 30.582H57.4438ZM61.3798 27.03H66.7238C67.3852 27.03 67.9612 26.9127 68.4518 26.678C68.9425 26.4434 69.3158 26.07 69.5718 25.558C69.8492 25.0247 69.9878 24.2994 69.9878 23.382C69.9878 22.6567 69.8492 22.0487 69.5718 21.558C69.2945 21.0674 68.9105 20.694 68.4198 20.438C67.9292 20.1607 67.3638 20.022 66.7238 20.022H61.3798V27.03ZM61.3798 16.95H66.5318C67.3212 16.95 67.9612 16.662 68.4518 16.086C68.9425 15.4887 69.1985 14.71 69.2198 13.75C69.2412 12.534 68.9745 11.6914 68.4198 11.222C67.8865 10.7527 67.2252 10.518 66.4358 10.518H61.3798V16.95ZM84.0723 30.742C82.2163 30.742 80.7337 30.486 79.6243 29.974C78.5363 29.462 77.747 28.5767 77.2563 27.318C76.7657 26.038 76.5203 24.2674 76.5203 22.006C76.5203 19.702 76.755 17.9207 77.2243 16.662C77.6937 15.382 78.4723 14.486 79.5603 13.974C80.6483 13.462 82.1203 13.206 83.9763 13.206C85.619 13.206 86.931 13.3767 87.9123 13.718C88.915 14.038 89.6403 14.6247 90.0883 15.478C90.5577 16.31 90.7923 17.494 90.7923 19.03C90.7923 20.118 90.579 20.9927 90.1523 21.654C89.7257 22.294 89.107 22.7527 88.2963 23.03C87.507 23.3074 86.5683 23.446 85.4803 23.446H80.4563C80.499 24.5127 80.6377 25.366 80.8723 26.006C81.1283 26.6247 81.5763 27.0727 82.2163 27.35C82.8777 27.6274 83.8377 27.766 85.0963 27.766H90.2803V30.102C89.4057 30.2727 88.4777 30.422 87.4963 30.55C86.5363 30.678 85.395 30.742 84.0723 30.742ZM80.4243 21.046H85.0963C85.843 21.046 86.387 20.9074 86.7283 20.63C87.091 20.3314 87.2723 19.798 87.2723 19.03C87.2723 18.2834 87.1657 17.6967 86.9523 17.27C86.739 16.8434 86.387 16.5447 85.8963 16.374C85.4057 16.182 84.7657 16.086 83.9763 16.086C83.0803 16.086 82.3763 16.2247 81.8643 16.502C81.3523 16.7794 80.979 17.2807 80.7443 18.006C80.531 18.71 80.4243 19.7234 80.4243 21.046ZM93.8023 30.582V27.702L102.506 16.63H93.5143V13.43H107.114V16.31L98.3783 27.382H107.114V30.582H93.8023ZM110.858 10.71C110.452 10.71 110.25 10.518 110.25 10.134V7.22203C110.25 6.79536 110.452 6.58203 110.858 6.58203H113.866C114.058 6.58203 114.196 6.64603 114.282 6.77403C114.388 6.90203 114.442 7.05136 114.442 7.22203V10.134C114.442 10.518 114.25 10.71 113.866 10.71H110.858ZM110.346 30.582V13.43H114.314V30.582H110.346ZM119.497 30.582V16.63H117.001V14.07L119.497 13.43V11.99C119.497 10.6247 119.668 9.5047 120.009 8.63003C120.372 7.73403 120.948 7.0727 121.737 6.64603C122.548 6.19803 123.614 5.97403 124.937 5.97403C125.684 5.97403 126.345 6.02736 126.921 6.13403C127.497 6.21936 127.988 6.3047 128.393 6.39003V9.20603H125.673C125.097 9.20603 124.649 9.30203 124.329 9.49403C124.009 9.68603 123.785 9.97403 123.657 10.358C123.529 10.7207 123.465 11.2007 123.465 11.798V13.43H128.169V16.63H123.465V30.582H119.497ZM135.778 38.166L137.762 30.582C136.93 30.582 136.173 30.422 135.49 30.102C134.829 29.782 134.263 29.302 133.794 28.662C133.325 28.022 132.941 27.2007 132.642 26.198L129.122 13.43H133.218L136.322 25.398C136.471 25.8887 136.653 26.262 136.866 26.518C137.079 26.774 137.293 26.966 137.506 27.094C137.719 27.2007 137.911 27.2647 138.082 27.286C138.274 27.3074 138.402 27.318 138.466 27.318L142.018 13.43H146.05L140.546 34.998L139.01 38.166H135.778Z" fill="#FCFCFC" fill-opacity="0.5"/>
<path d="M13.7248 16.4451C18.9619 13.9404 23.0605 9.69003 25.4134 4.37703C23.8954 2.78313 21.922 1.64463 19.7968 0.961531L18.6583 0.582031C18.5824 0.733831 18.5065 0.96154 18.5065 1.11334C16.6849 6.27454 12.9658 10.449 7.95642 12.8019C4.46502 14.4717 1.88442 17.5077 0.670027 21.1509L0.290527 22.2894C0.442327 22.3653 0.67003 22.4412 0.82183 22.4412C2.26393 22.9725 3.70602 23.6556 5.07222 24.4905C6.96972 21.075 10.0057 18.1908 13.7248 16.4451Z" fill="#FCFCFC" fill-opacity="0.5"/>
<path d="M35.7421 16.75C32.9338 21.0004 29.063 24.4159 24.2813 26.6929C20.4104 28.5145 17.4503 31.93 16.0841 36.0286L15.7046 37.3189C17.1467 38.6092 18.8924 39.5959 20.7899 40.2031L21.9284 40.5826C22.0043 40.4308 22.0802 40.2031 22.0802 40.0513C23.9018 34.8901 27.6209 30.7156 32.6303 28.3627C36.1217 26.6929 38.7781 23.6569 39.9166 20.0137L40.2961 18.8752C38.7022 18.4198 37.1842 17.6608 35.7421 16.75Z" fill="#FCFCFC" fill-opacity="0.5"/>
<path d="M12.6581 33.3735C14.5556 28.8195 18.047 25.1003 22.5251 22.9751C26.6237 21.0017 30.0392 17.9657 32.3921 14.2467C30.6464 12.5769 29.2043 10.6793 28.1417 8.40234C25.3334 13.5635 20.9312 17.7381 15.5423 20.3186C12.4304 21.7607 9.92571 24.2655 8.40771 27.3015C10.0775 28.8954 11.4437 30.8687 12.5063 33.0698C12.5063 33.0698 12.5822 33.2217 12.6581 33.3735Z" fill="#FCFCFC" fill-opacity="0.5"/>
</svg>
