<svg width="164" height="43" viewBox="0 0 164 43" fill="none" xmlns="http://www.w3.org/2000/svg">
<path d="M57.3662 30.582V12.118C57.3662 11.1154 57.5155 10.2834 57.8142 9.62203C58.1129 8.93936 58.5075 8.40603 58.9982 8.02203C59.5102 7.63803 60.0649 7.37136 60.6622 7.22203C61.2809 7.05136 61.8889 6.96603 62.4862 6.96603C63.3182 6.96603 64.2995 6.9767 65.4302 6.99803C66.5609 6.99803 67.7449 7.03003 68.9822 7.09403C70.2195 7.1367 71.4142 7.21136 72.5662 7.31803V10.614H63.5422C62.8382 10.614 62.2835 10.8167 61.8782 11.222C61.4942 11.606 61.3022 12.1394 61.3022 12.822V17.59L71.1262 17.814V20.918L61.3022 21.142V30.582H57.3662ZM76.155 10.71C75.7496 10.71 75.547 10.518 75.547 10.134V7.22203C75.547 6.79536 75.7496 6.58203 76.155 6.58203H79.163C79.355 6.58203 79.4936 6.64603 79.579 6.77403C79.6856 6.90203 79.739 7.05136 79.739 7.22203V10.134C79.739 10.518 79.547 10.71 79.163 10.71H76.155ZM75.643 30.582V13.43H79.611V30.582H75.643ZM83.6742 30.582V13.43H86.9062L87.6422 15.222C88.3462 14.6887 89.1995 14.2087 90.2022 13.782C91.2262 13.3554 92.2822 13.142 93.3702 13.142C94.7142 13.142 95.7702 13.4194 96.5382 13.974C97.3062 14.5074 97.8502 15.2327 98.1702 16.15C98.5115 17.0674 98.6822 18.07 98.6822 19.158V30.582H94.7142V19.638C94.7142 19.0194 94.5969 18.4967 94.3622 18.07C94.1275 17.6434 93.7969 17.3127 93.3702 17.078C92.9649 16.8434 92.4635 16.726 91.8662 16.726C91.3115 16.726 90.7889 16.7794 90.2982 16.886C89.8289 16.9927 89.3809 17.1527 88.9542 17.366C88.5275 17.5794 88.0902 17.8354 87.6422 18.134V30.582H83.6742ZM108.883 30.582C107.646 30.582 106.632 30.4007 105.843 30.038C105.054 29.654 104.478 29.0247 104.115 28.15C103.774 27.2754 103.614 26.1234 103.635 24.694L103.763 16.63H101.075V14.07L103.891 13.43L104.467 8.63003H107.571V13.43H111.923V16.63H107.571V24.662C107.571 25.2167 107.624 25.6754 107.731 26.038C107.838 26.3794 107.987 26.6567 108.179 26.87C108.392 27.062 108.616 27.2007 108.851 27.286C109.086 27.3714 109.331 27.4247 109.587 27.446L111.731 27.67V30.582H108.883ZM121.838 30.742C119.982 30.742 118.5 30.486 117.39 29.974C116.302 29.462 115.513 28.5767 115.022 27.318C114.532 26.038 114.286 24.2674 114.286 22.006C114.286 19.702 114.521 17.9207 114.99 16.662C115.46 15.382 116.238 14.486 117.326 13.974C118.414 13.462 119.886 13.206 121.742 13.206C123.385 13.206 124.697 13.3767 125.678 13.718C126.681 14.038 127.406 14.6247 127.854 15.478C128.324 16.31 128.558 17.494 128.558 19.03C128.558 20.118 128.345 20.9927 127.918 21.654C127.492 22.294 126.873 22.7527 126.062 23.03C125.273 23.3074 124.334 23.446 123.246 23.446H118.222C118.265 24.5127 118.404 25.366 118.638 26.006C118.894 26.6247 119.342 27.0727 119.982 27.35C120.644 27.6274 121.604 27.766 122.862 27.766H128.046V30.102C127.172 30.2727 126.244 30.422 125.262 30.55C124.302 30.678 123.161 30.742 121.838 30.742ZM118.19 21.046H122.862C123.609 21.046 124.153 20.9074 124.494 20.63C124.857 20.3314 125.038 19.798 125.038 19.03C125.038 18.2834 124.932 17.6967 124.718 17.27C124.505 16.8434 124.153 16.5447 123.662 16.374C123.172 16.182 122.532 16.086 121.742 16.086C120.846 16.086 120.142 16.2247 119.63 16.502C119.118 16.7794 118.745 17.2807 118.51 18.006C118.297 18.71 118.19 19.7234 118.19 21.046ZM138.64 30.774C137.616 30.774 136.667 30.646 135.792 30.39C134.939 30.1127 134.192 29.654 133.552 29.014C132.912 28.3527 132.411 27.4567 132.048 26.326C131.707 25.1954 131.536 23.7767 131.536 22.07C131.536 20.3207 131.696 18.87 132.016 17.718C132.358 16.566 132.838 15.6594 133.456 14.998C134.075 14.3367 134.822 13.878 135.696 13.622C136.592 13.3447 137.606 13.206 138.736 13.206C139.696 13.206 140.667 13.2594 141.648 13.366C142.63 13.4514 143.611 13.622 144.592 13.878V16.15H139.92C138.896 16.15 138.064 16.31 137.424 16.63C136.784 16.95 136.304 17.5367 135.984 18.39C135.664 19.2434 135.504 20.47 135.504 22.07C135.504 23.6487 135.664 24.854 135.984 25.686C136.304 26.4967 136.784 27.0514 137.424 27.35C138.086 27.6274 138.928 27.766 139.952 27.766H144.848V30.006C144.336 30.1554 143.739 30.294 143.056 30.422C142.374 30.5287 141.648 30.614 140.88 30.678C140.134 30.742 139.387 30.774 138.64 30.774ZM147.768 30.582V6.16603H151.736V19.702H153.912L158.2 13.43H162.264L156.824 21.494L162.712 30.582H158.648L153.848 23.254H151.736V30.582H147.768Z" fill="#FCFCFC" fill-opacity="0.5"/>
<g clip-path="url(#clip0_11343_6077)">
<path d="M28.8468 22.1817C29.5253 21.9679 30.2532 21.9885 30.9192 22.2405C31.1706 22.3464 31.4221 22.468 31.6811 22.6013C31.9401 22.7347 32.1573 22.8837 32.3935 23.0445C32.8623 23.3763 33.2953 23.7588 33.6849 24.1856C34.5501 25.124 35.2009 26.2494 35.5897 27.4798C36.0261 28.8868 36.1676 30.3731 36.0049 31.8405C35.8161 33.4963 35.307 35.0964 34.5078 36.5464C34.0078 37.4478 33.2323 38.1537 32.3021 38.5543C32.0894 38.6413 31.8702 38.7108 31.6468 38.7621C31.4366 38.8097 31.2221 38.8347 31.0068 38.8366C30.611 38.8482 30.2185 38.7593 29.864 38.5778C29.5705 38.4135 29.3241 38.1727 29.1496 37.8795C28.9751 37.5863 28.8785 37.251 28.8697 36.9072C28.852 36.1531 29.0711 35.4132 29.4944 34.7974C30.0385 33.9724 30.4262 33.049 30.6373 32.0758C30.8281 31.1732 30.8488 30.2413 30.6982 29.3307C30.664 29.115 30.6106 28.8954 30.5573 28.6876C30.5268 28.5856 30.5001 28.4837 30.4697 28.3817C30.4392 28.2797 30.3973 28.1778 30.3592 28.0758C30.283 27.8758 30.203 27.6837 30.1154 27.4954C30.0278 27.3072 29.9211 27.1268 29.8144 26.9503C29.3967 26.2622 28.864 25.6555 28.2411 25.1582C27.8187 24.8478 27.4899 24.421 27.2925 23.9268C27.2264 23.7418 27.2184 23.54 27.2697 23.35C27.3209 23.16 27.4289 22.9914 27.5782 22.868C27.7424 22.7078 27.9301 22.5755 28.1344 22.4758C28.3613 22.3524 28.6 22.2539 28.8468 22.1817Z" fill="#FCFCFC" fill-opacity="0.5"/>
<path d="M24.4277 29.761C24.9492 30.2583 25.2972 30.9183 25.4182 31.6394C25.4563 31.9189 25.4792 32.2004 25.4867 32.4826C25.4867 32.7649 25.4867 33.0551 25.4867 33.3414C25.4867 33.6277 25.4296 33.9179 25.3801 34.2081C25.329 34.502 25.2616 34.7927 25.1782 35.0786C24.8172 36.3136 24.1924 37.4499 23.3496 38.4041C22.3846 39.4933 21.2072 40.3605 19.8943 40.9492C18.4058 41.6214 16.7997 41.9737 15.1743 41.9845C14.1683 41.9872 13.1894 41.6481 12.3896 41.0198C12.0465 40.7719 11.7591 40.451 11.5469 40.0789C11.3346 39.7068 11.2024 39.2922 11.1591 38.863C11.1487 38.5187 11.228 38.1779 11.3888 37.8758C11.5496 37.5738 11.7859 37.3216 12.0734 37.1453C12.3673 36.9578 12.691 36.8251 13.0296 36.7532C13.4043 36.6666 13.7894 36.6376 14.1724 36.6669C15.1359 36.7336 16.1029 36.6112 17.022 36.3061C17.4554 36.1619 17.875 35.9768 18.2753 35.7532C18.4734 35.6355 18.6563 35.5139 18.8429 35.3885C19.0233 35.2689 19.1964 35.1379 19.361 34.9963C19.685 34.7178 19.9822 34.4078 20.2486 34.0708C20.3782 33.9061 20.5001 33.7296 20.6296 33.5571C20.7419 33.3853 20.8449 33.2072 20.9382 33.0237C21.2956 32.2994 21.5276 31.5164 21.6239 30.71C21.6604 30.4124 21.7347 30.1211 21.8448 29.8434C21.8882 29.7262 21.9417 29.6133 22.0048 29.5061C22.03 29.4578 22.0593 29.4118 22.0924 29.3688C22.1229 29.3218 22.1572 29.2786 22.1877 29.2394C22.3125 29.0915 22.4785 28.9866 22.6631 28.9389C22.8478 28.8912 23.0422 28.903 23.2201 28.9728C23.3235 29.0044 23.4242 29.0451 23.521 29.0943C23.6261 29.1465 23.7279 29.2054 23.8258 29.2708C24.0424 29.4123 24.2441 29.5766 24.4277 29.761Z" fill="#FCFCFC" fill-opacity="0.5"/>
<path d="M15.8555 29.6178C15.6941 30.3301 15.3116 30.9689 14.766 31.4374C13.8725 32.148 12.8429 32.6559 11.745 32.9276C10.5256 33.2193 9.25855 33.23 8.03457 32.959C6.63297 32.6474 5.3113 32.034 4.15648 31.159C2.84374 30.1646 1.74191 28.9049 0.918385 27.457C0.414237 26.5612 0.21325 25.5184 0.346956 24.4923C0.346956 24.3747 0.381242 24.257 0.404099 24.1433C0.426956 24.0296 0.465052 23.9158 0.499337 23.806C0.565945 23.597 0.651396 23.3948 0.754575 23.2021C0.945074 22.8494 1.21562 22.5494 1.54315 22.3276C1.82742 22.1448 2.15419 22.044 2.48927 22.0357C2.82436 22.0274 3.15544 22.112 3.44791 22.2806C3.75767 22.4419 4.03545 22.6613 4.26696 22.9276C4.39583 23.0648 4.51308 23.213 4.61743 23.3707C4.7231 23.5377 4.81976 23.7105 4.90696 23.8884C5.32957 24.7788 5.91409 25.5775 6.62886 26.2413C7.29615 26.8618 8.07179 27.3461 8.91457 27.6688C9.31289 27.8149 9.72355 27.9225 10.1412 27.9904C10.5441 28.0573 10.9524 28.0836 11.3603 28.0688C11.7563 28.0539 12.1502 28.0027 12.5374 27.9158C12.9179 27.8335 13.2912 27.7194 13.6536 27.5747C13.9238 27.4608 14.2065 27.3818 14.4955 27.3394C14.6217 27.3213 14.7491 27.3135 14.8765 27.3158C14.9815 27.317 15.0861 27.3289 15.1889 27.3511C15.3795 27.3837 15.5555 27.4768 15.6921 27.6174C15.8287 27.7581 15.9192 27.9392 15.9508 28.1355C16.0348 28.6303 16.0021 29.1387 15.8555 29.6178Z" fill="#FCFCFC" fill-opacity="0.5"/>
<path d="M11.6866 21.8865C11.0073 22.1041 10.2771 22.0834 9.61044 21.8276C9.35901 21.7218 9.11139 21.6002 8.84853 21.4669C8.61028 21.3313 8.37888 21.1834 8.1552 21.0237C7.67922 20.6921 7.23867 20.3096 6.84091 19.8825C5.98192 18.9442 5.33763 17.8201 4.9552 16.5924C4.51581 15.1846 4.37295 13.6967 4.53615 12.2276C4.72571 10.572 5.23472 8.97207 6.03329 7.52176C6.53297 6.62819 7.3039 5.92828 8.22758 5.52961C8.44124 5.44251 8.66172 5.37429 8.88663 5.32569C9.09491 5.27406 9.30859 5.24903 9.52282 5.25118C9.91872 5.23857 10.3115 5.32751 10.6657 5.51C10.9601 5.67196 11.2068 5.91255 11.3797 6.20651C11.5527 6.50046 11.6455 6.83694 11.6485 7.18059C11.6667 7.93359 11.4476 8.67242 11.0238 9.28647C10.4878 10.1118 10.1079 11.0338 9.90377 12.0041C9.71295 12.9067 9.69226 13.8386 9.84282 14.7492C9.88091 14.9688 9.93044 15.1845 9.98758 15.3924C10.0142 15.4982 10.0447 15.6002 10.0752 15.7022C10.1057 15.8041 10.1438 15.9061 10.1819 16.0041C10.2581 16.2041 10.3381 16.3963 10.4295 16.5845C10.5194 16.7713 10.6186 16.9533 10.7266 17.1296C11.1444 17.8178 11.677 18.4245 12.3 18.9218C12.7239 19.2332 13.054 19.6613 13.2523 20.1571C13.3175 20.3426 13.3246 20.5444 13.2726 20.7343C13.2207 20.9242 13.1124 21.0926 12.9628 21.2159C12.7978 21.3749 12.6103 21.5071 12.4066 21.608C12.1773 21.7278 11.9358 21.8212 11.6866 21.8865Z" fill="#FCFCFC" fill-opacity="0.5"/>
<path d="M16.1036 14.3095C15.5844 13.8104 15.2368 13.1512 15.1132 12.4311C15.0751 12.1487 15.056 11.8742 15.0446 11.5879C15.0294 11.3005 15.0294 11.0125 15.0446 10.7252C15.0658 10.4346 15.1014 10.1453 15.1513 9.8585C15.2006 9.56583 15.2667 9.27643 15.3494 8.99184C15.7141 7.75649 16.3399 6.61952 17.1817 5.66242C18.1456 4.57367 19.3216 3.70643 20.6332 3.11733C22.1277 2.4431 23.7405 2.09077 25.3722 2.08203C26.3772 2.08283 27.3542 2.42312 28.1532 3.05066C28.4983 3.29913 28.787 3.62167 28.9995 3.99605C29.2119 4.37042 29.343 4.78775 29.3836 5.21929C29.3955 5.56388 29.3173 5.90543 29.1571 6.20826C28.997 6.5111 28.7608 6.7641 28.4732 6.94086C28.1771 7.12377 27.8542 7.2562 27.517 7.33301C27.142 7.41776 26.7569 7.44551 26.3741 7.41537C25.412 7.35039 24.4465 7.47279 23.5284 7.77615C23.0933 7.92066 22.6724 8.1071 22.2713 8.33301C22.077 8.44674 21.8903 8.56831 21.7075 8.6938C21.5246 8.81929 21.3532 8.96439 21.1894 9.08595C20.8645 9.36345 20.5671 9.67346 20.3017 10.0114C20.0445 10.3393 19.8175 10.6912 19.6236 11.0624C19.2534 11.7789 19.0085 12.5567 18.8998 13.3605C18.864 13.6612 18.7923 13.9562 18.6865 14.2389C18.6444 14.3559 18.5921 14.4688 18.5303 14.5761C18.4998 14.6271 18.4694 14.6703 18.4389 14.7134C18.4093 14.7569 18.3775 14.7988 18.3436 14.8389C18.2202 14.9876 18.0551 15.0935 17.871 15.1419C17.6869 15.1903 17.4927 15.179 17.3151 15.1095C17.2113 15.0772 17.1105 15.0352 17.0141 14.984C16.9094 14.9326 16.8076 14.8749 16.7094 14.8114C16.4928 14.6638 16.29 14.4958 16.1036 14.3095Z" fill="#FCFCFC" fill-opacity="0.5"/>
<path d="M24.6733 14.4544C24.8337 13.7426 25.2148 13.1039 25.759 12.6348C26.6537 11.9237 27.6846 11.4158 28.7838 11.1446C30.0028 10.8496 31.2702 10.8376 32.4943 11.1093C33.8959 11.4209 35.2176 12.0344 36.3724 12.9093C37.6804 13.9072 38.7781 15.168 39.599 16.6152C40.1042 17.5093 40.3066 18.5507 40.1743 19.576C40.1743 19.6976 40.1362 19.8152 40.1133 19.929C40.0905 20.0427 40.0562 20.1564 40.0219 20.2623C39.9525 20.4721 39.8658 20.6755 39.7629 20.8701C39.5735 21.2226 39.3026 21.5216 38.9743 21.7407C38.6904 21.9241 38.3638 22.0256 38.0287 22.0346C37.6936 22.0436 37.3623 21.9597 37.0695 21.7917C36.7614 21.6277 36.4841 21.4086 36.2505 21.1446C36.1237 21.0052 36.0078 20.8557 35.9038 20.6976C35.7969 20.5307 35.6989 20.3579 35.6105 20.1799C35.1882 19.2893 34.6036 18.4906 33.8886 17.827C33.2229 17.2052 32.4468 16.7219 31.6029 16.4035C30.8198 16.1116 29.9893 15.9784 29.1571 16.0113C28.7599 16.026 28.3646 16.0772 27.9762 16.1642C27.5956 16.251 27.2223 16.369 26.86 16.5172C26.59 16.6315 26.3072 16.7105 26.0181 16.7525C25.8918 16.7698 25.7646 16.779 25.6371 16.7799C25.531 16.7768 25.4253 16.765 25.321 16.7446C25.1305 16.7116 24.9549 16.6183 24.8183 16.4777C24.6818 16.3372 24.5912 16.1563 24.559 15.9603C24.4774 15.4563 24.5167 14.9393 24.6733 14.4544Z" fill="#FCFCFC" fill-opacity="0.5"/>
</g>
<defs>
<clipPath id="clip0_11343_6077">
<rect width="40" height="40" fill="white" transform="translate(0.158203 2.08203)"/>
</clipPath>
</defs>
</svg>
