<svg width="177" height="43" viewBox="0 0 177 43" fill="none" xmlns="http://www.w3.org/2000/svg">
<path d="M62.5084 30.582V10.518H55.7244V6.96603H73.2284V10.518H66.4764V30.582H62.5084ZM78.0304 30.774C76.7504 30.774 75.7051 30.39 74.8944 29.622C74.0837 28.854 73.6784 27.798 73.6784 26.454V25.014C73.6784 23.6914 74.1264 22.614 75.0224 21.782C75.9397 20.95 77.3371 20.534 79.2144 20.534H84.1104V19.03C84.1104 18.4327 84.0037 17.9314 83.7904 17.526C83.5771 17.1207 83.1931 16.822 82.6384 16.63C82.0837 16.4167 81.2411 16.31 80.1104 16.31H74.9264V14.006C75.7157 13.7927 76.6437 13.6114 77.7104 13.462C78.7771 13.2914 80.0464 13.206 81.5184 13.206C82.9264 13.1847 84.1211 13.3554 85.1024 13.718C86.0837 14.0594 86.8197 14.6354 87.3104 15.446C87.8224 16.2567 88.0784 17.366 88.0784 18.774V30.582H84.9744L84.3024 28.726C84.1531 28.854 83.8864 29.0247 83.5024 29.238C83.1184 29.4514 82.6384 29.686 82.0624 29.942C81.4864 30.1767 80.8464 30.3794 80.1424 30.55C79.4597 30.6994 78.7557 30.774 78.0304 30.774ZM79.9504 27.99C80.2277 27.99 80.5371 27.958 80.8784 27.894C81.2411 27.8087 81.6037 27.7234 81.9664 27.638C82.3291 27.5314 82.6597 27.4354 82.9584 27.35C83.2784 27.2434 83.5344 27.1474 83.7264 27.062C83.9397 26.9767 84.0677 26.9234 84.1104 26.902V22.422L80.3984 22.614C79.4171 22.6994 78.7024 22.9554 78.2544 23.382C77.8277 23.8087 77.6144 24.374 77.6144 25.078V25.782C77.6144 26.3154 77.7211 26.7527 77.9344 27.094C78.1691 27.414 78.4571 27.638 78.7984 27.766C79.1611 27.894 79.5451 27.9687 79.9504 27.99ZM98.1537 30.774C97.663 30.774 97.0977 30.7527 96.4577 30.71C95.839 30.6887 95.2097 30.646 94.5697 30.582C93.951 30.5394 93.375 30.4754 92.8417 30.39C92.3083 30.3047 91.871 30.2087 91.5297 30.102V27.766H98.9217C99.455 27.766 99.903 27.7234 100.266 27.638C100.65 27.5527 100.938 27.382 101.13 27.126C101.322 26.87 101.418 26.486 101.418 25.974V25.366C101.418 24.8327 101.236 24.4167 100.874 24.118C100.532 23.798 99.9243 23.638 99.0497 23.638H96.4577C95.455 23.638 94.559 23.4994 93.7697 23.222C93.0017 22.9447 92.3937 22.4754 91.9457 21.814C91.4977 21.1527 91.2737 20.2567 91.2737 19.126V18.166C91.2737 17.078 91.4763 16.182 91.8817 15.478C92.3083 14.7527 93.0017 14.2087 93.9617 13.846C94.943 13.462 96.2443 13.27 97.8657 13.27C98.5483 13.27 99.2843 13.302 100.074 13.366C100.863 13.43 101.62 13.5154 102.346 13.622C103.071 13.7074 103.647 13.814 104.074 13.942V16.278H97.0977C96.3083 16.278 95.7003 16.4167 95.2737 16.694C94.8683 16.95 94.6657 17.4407 94.6657 18.166V18.774C94.6657 19.2434 94.7617 19.5954 94.9537 19.83C95.1457 20.0647 95.4337 20.2247 95.8177 20.31C96.2017 20.3954 96.6603 20.438 97.1937 20.438H99.8497C101.535 20.438 102.783 20.822 103.594 21.59C104.404 22.358 104.81 23.446 104.81 24.854V26.262C104.81 27.414 104.543 28.3207 104.01 28.982C103.476 29.6434 102.708 30.1127 101.706 30.39C100.724 30.646 99.5403 30.774 98.1537 30.774ZM108.103 30.582V6.16603H112.071V19.702H114.247L118.535 13.43H122.599L117.159 21.494L123.047 30.582H118.983L114.183 23.254H112.071V30.582H108.103ZM134.507 30.774C133.739 30.774 133.035 30.6887 132.395 30.518C131.776 30.326 131.211 30.0914 130.699 29.814C130.187 29.5154 129.707 29.2167 129.259 28.918L128.587 30.582H125.291V6.16603H129.259V14.742C129.984 14.3367 130.806 13.9847 131.723 13.686C132.662 13.366 133.526 13.206 134.315 13.206C135.766 13.206 136.939 13.5047 137.835 14.102C138.731 14.6994 139.382 15.6594 139.787 16.982C140.214 18.2834 140.427 20.0114 140.427 22.166C140.427 24.0434 140.214 25.622 139.787 26.902C139.382 28.182 138.742 29.1527 137.867 29.814C137.014 30.454 135.894 30.774 134.507 30.774ZM133.067 27.542C133.771 27.542 134.368 27.3607 134.859 26.998C135.371 26.6354 135.766 26.0487 136.043 25.238C136.32 24.4274 136.459 23.3394 136.459 21.974C136.459 20.3527 136.31 19.1474 136.011 18.358C135.712 17.5687 135.307 17.046 134.795 16.79C134.283 16.534 133.707 16.406 133.067 16.406C132.32 16.406 131.638 16.5234 131.019 16.758C130.4 16.9714 129.814 17.2274 129.259 17.526V26.486C129.75 26.742 130.304 26.9874 130.923 27.222C131.563 27.4354 132.278 27.542 133.067 27.542ZM150.955 30.742C149.099 30.742 147.616 30.486 146.507 29.974C145.419 29.462 144.63 28.5767 144.139 27.318C143.648 26.038 143.403 24.2674 143.403 22.006C143.403 19.702 143.638 17.9207 144.107 16.662C144.576 15.382 145.355 14.486 146.443 13.974C147.531 13.462 149.003 13.206 150.859 13.206C152.502 13.206 153.814 13.3767 154.795 13.718C155.798 14.038 156.523 14.6247 156.971 15.478C157.44 16.31 157.675 17.494 157.675 19.03C157.675 20.118 157.462 20.9927 157.035 21.654C156.608 22.294 155.99 22.7527 155.179 23.03C154.39 23.3074 153.451 23.446 152.363 23.446H147.339C147.382 24.5127 147.52 25.366 147.755 26.006C148.011 26.6247 148.459 27.0727 149.099 27.35C149.76 27.6274 150.72 27.766 151.979 27.766H157.163V30.102C156.288 30.2727 155.36 30.422 154.379 30.55C153.419 30.678 152.278 30.742 150.955 30.742ZM147.307 21.046H151.979C152.726 21.046 153.27 20.9074 153.611 20.63C153.974 20.3314 154.155 19.798 154.155 19.03C154.155 18.2834 154.048 17.6967 153.835 17.27C153.622 16.8434 153.27 16.5447 152.779 16.374C152.288 16.182 151.648 16.086 150.859 16.086C149.963 16.086 149.259 16.2247 148.747 16.502C148.235 16.7794 147.862 17.2807 147.627 18.006C147.414 18.71 147.307 19.7234 147.307 21.046ZM167.341 30.774C166.85 30.774 166.285 30.7527 165.645 30.71C165.026 30.6887 164.397 30.646 163.757 30.582C163.138 30.5394 162.562 30.4754 162.029 30.39C161.496 30.3047 161.058 30.2087 160.717 30.102V27.766H168.109C168.642 27.766 169.09 27.7234 169.453 27.638C169.837 27.5527 170.125 27.382 170.317 27.126C170.509 26.87 170.605 26.486 170.605 25.974V25.366C170.605 24.8327 170.424 24.4167 170.061 24.118C169.72 23.798 169.112 23.638 168.237 23.638H165.645C164.642 23.638 163.746 23.4994 162.957 23.222C162.189 22.9447 161.581 22.4754 161.133 21.814C160.685 21.1527 160.461 20.2567 160.461 19.126V18.166C160.461 17.078 160.664 16.182 161.069 15.478C161.496 14.7527 162.189 14.2087 163.149 13.846C164.13 13.462 165.432 13.27 167.053 13.27C167.736 13.27 168.472 13.302 169.261 13.366C170.05 13.43 170.808 13.5154 171.533 13.622C172.258 13.7074 172.834 13.814 173.261 13.942V16.278H166.285C165.496 16.278 164.888 16.4167 164.461 16.694C164.056 16.95 163.853 17.4407 163.853 18.166V18.774C163.853 19.2434 163.949 19.5954 164.141 19.83C164.333 20.0647 164.621 20.2247 165.005 20.31C165.389 20.3954 165.848 20.438 166.381 20.438H169.037C170.722 20.438 171.97 20.822 172.781 21.59C173.592 22.358 173.997 23.446 173.997 24.854V26.262C173.997 27.414 173.73 28.3207 173.197 28.982C172.664 29.6434 171.896 30.1127 170.893 30.39C169.912 30.646 168.728 30.774 167.341 30.774Z" fill="#FCFCFC" fill-opacity="0.5"/>
<path d="M12.6495 17.2539H0.23584V42.0811H25.0631V29.6675C18.1942 29.6675 12.6495 24.1228 12.6495 17.2539Z" fill="#FCFCFC" fill-opacity="0.5"/>
<path d="M25.5186 2.08203C17.3777 2.08203 10.8062 8.65358 10.8062 16.7945H25.5186V31.5069C33.6595 31.5069 40.231 24.9353 40.231 16.7945C40.231 8.68628 33.6595 2.08203 25.5186 2.08203Z" fill="#FCFCFC" fill-opacity="0.5"/>
</svg>
